<svg width="636" height="146" viewBox="0 0 636 146" fill="none" xmlns="http://www.w3.org/2000/svg">
<g filter="url(#filter0_d_1_3795)">
<path d="M7.91202 80.6447V55.5293H29.7364V34.9174H53.1197V55.5293H75.2905V80.6447H53.1197V101.257H29.7364V80.6447H7.91202ZM86.2698 131.395V109.498L132.217 69.2709C135.662 66.1545 138.593 63.3046 141.013 60.7212C143.432 58.0968 145.277 55.4724 146.549 52.848C147.82 50.1826 148.455 47.2917 148.455 44.1753C148.455 40.6898 147.697 37.7168 146.18 35.2565C144.662 32.7551 142.571 30.8278 139.906 29.4746C137.24 28.1214 134.185 27.4448 130.741 27.4448C127.255 27.4448 124.2 28.1624 121.576 29.5976C118.952 30.9918 116.901 33.0216 115.425 35.687C113.99 38.3524 113.272 41.5919 113.272 45.4054H84.4245C84.4245 36.8352 86.3518 29.4336 90.2064 23.2007C94.0609 16.9678 99.4737 12.1701 106.445 8.80758C113.457 5.40409 121.596 3.70234 130.864 3.70234C140.418 3.70234 148.722 5.30157 155.775 8.50004C162.828 11.6985 168.282 16.1682 172.136 21.909C176.032 27.6088 177.98 34.2313 177.98 41.7764C177.98 46.5741 177.016 51.3308 175.089 56.0465C173.162 60.7622 169.697 65.9699 164.694 71.6698C159.732 77.3696 152.679 84.1971 143.535 92.1523L128.465 106.053V106.853H179.517V131.395H86.2698ZM236.287 133.117C227.102 133.117 218.942 131.457 211.807 128.135C204.672 124.814 199.033 120.241 194.892 114.419C190.791 108.596 188.659 101.912 188.495 94.3666H218.019C218.265 99.0003 220.151 102.732 223.678 105.561C227.204 108.35 231.407 109.744 236.287 109.744C240.101 109.744 243.484 108.903 246.436 107.222C249.389 105.541 251.705 103.183 253.387 100.148C255.068 97.073 255.888 93.5465 255.847 89.5689C255.888 85.5093 255.047 81.9623 253.325 78.9278C251.644 75.8934 249.307 73.5356 246.313 71.8543C243.361 70.1321 239.957 69.2709 236.103 69.2709C232.453 69.2299 228.988 70.0295 225.708 71.6698C222.468 73.31 220.008 75.5448 218.327 78.3743L191.447 73.3305L196.921 5.42459H277.744V29.9667H221.956L219.065 59.6755H219.803C221.894 56.19 225.257 53.3196 229.89 51.0643C234.565 48.7679 239.875 47.6198 245.821 47.6198C253.366 47.6198 260.091 49.383 265.996 52.9095C271.942 56.395 276.617 61.2338 280.02 67.4257C283.465 73.6176 285.187 80.7116 285.187 88.7078C285.187 97.36 283.137 105.028 279.036 111.712C274.976 118.396 269.277 123.645 261.936 127.458C254.637 131.231 246.088 133.117 236.287 133.117ZM345.34 134.47C334.35 134.47 324.878 131.867 316.922 126.659C308.967 121.41 302.837 113.885 298.531 104.085C294.226 94.2436 292.093 82.4134 292.134 68.5943C292.175 54.7753 294.328 43.0476 298.593 33.4112C302.898 23.7338 309.008 16.3732 316.922 11.3295C324.878 6.24471 334.35 3.70234 345.34 3.70234C356.329 3.70234 365.802 6.24471 373.757 11.3295C381.753 16.3732 387.904 23.7338 392.209 33.4112C396.515 43.0886 398.647 54.8163 398.606 68.5943C398.606 82.4544 396.454 94.3051 392.148 104.147C387.842 113.988 381.712 121.513 373.757 126.72C365.843 131.887 356.37 134.47 345.34 134.47ZM345.34 109.559C351.901 109.559 357.211 106.217 361.27 99.5334C365.33 92.8084 367.339 82.4954 367.298 68.5943C367.298 59.491 366.376 51.9869 364.53 46.082C362.685 40.1362 360.122 35.7075 356.842 32.7961C353.561 29.8847 349.727 28.429 345.34 28.429C338.82 28.429 333.55 31.7299 329.532 38.3319C325.513 44.8929 323.483 54.9803 323.442 68.5943C323.401 77.8207 324.283 85.4683 326.087 91.5372C327.933 97.6061 330.516 102.137 333.837 105.131C337.159 108.083 340.993 109.559 345.34 109.559ZM436.182 131.395V5.42459H522.172V30.1512H466.629V55.985H516.697V80.7731H466.629V131.395H436.182ZM596.933 43.1911C596.523 38.6805 594.698 35.1744 591.459 32.6731C588.26 30.1307 583.688 28.8595 577.742 28.8595C573.806 28.8595 570.525 29.3721 567.901 30.3972C565.276 31.4224 563.308 32.8371 561.996 34.6414C560.684 36.4046 560.007 38.4344 559.966 40.7308C559.884 42.617 560.253 44.2778 561.073 45.713C561.934 47.1482 563.164 48.4194 564.764 49.5265C566.404 50.5927 568.372 51.5358 570.669 52.356C572.965 53.1761 575.548 53.8937 578.419 54.5088L589.244 56.9691C595.477 58.3223 600.972 60.1266 605.729 62.3819C610.526 64.6373 614.545 67.3231 617.784 70.4396C621.065 73.5561 623.546 77.1441 625.227 81.2037C626.908 85.2633 627.769 89.8149 627.81 94.8587C627.769 102.814 625.76 109.641 621.783 115.341C617.805 121.041 612.085 125.408 604.622 128.443C597.199 131.477 588.24 132.994 577.742 132.994C567.204 132.994 558.018 131.416 550.186 128.258C542.354 125.101 536.265 120.303 531.918 113.865C527.571 107.427 525.336 99.2873 525.213 89.4459H554.369C554.615 93.5055 555.701 96.8885 557.629 99.5949C559.556 102.301 562.201 104.352 565.563 105.746C568.967 107.14 572.903 107.837 577.373 107.837C581.474 107.837 584.959 107.283 587.83 106.176C590.741 105.069 592.976 103.531 594.534 101.563C596.092 99.5949 596.892 97.3395 596.933 94.7972C596.892 92.4188 596.154 90.389 594.719 88.7078C593.283 86.9855 591.069 85.5093 588.076 84.2791C585.123 83.0079 581.351 81.8393 576.758 80.7731L563.595 77.6977C552.687 75.1963 544.097 71.1572 537.823 65.5804C531.549 59.9626 528.432 52.3765 528.473 42.8221C528.432 35.0309 530.524 28.2034 534.747 22.3396C538.971 16.4757 544.814 11.9035 552.277 8.62306C559.74 5.34258 568.249 3.70234 577.804 3.70234C587.563 3.70234 596.031 5.36308 603.207 8.68456C610.424 11.965 616.021 16.5782 619.999 22.5241C623.976 28.47 626.006 35.359 626.088 43.1911H596.933Z" fill="url(#paint0_linear_1_3795)"/>
<path d="M7.91202 80.6447H5.41202V83.1447H7.91202V80.6447ZM7.91202 55.5293V53.0293H5.41202V55.5293H7.91202ZM29.7364 55.5293V58.0293H32.2364V55.5293H29.7364ZM29.7364 34.9174V32.4174H27.2364V34.9174H29.7364ZM53.1197 34.9174H55.6197V32.4174H53.1197V34.9174ZM53.1197 55.5293H50.6197V58.0293H53.1197V55.5293ZM75.2905 55.5293H77.7905V53.0293H75.2905V55.5293ZM75.2905 80.6447V83.1447H77.7905V80.6447H75.2905ZM53.1197 80.6447V78.1447H50.6197V80.6447H53.1197ZM53.1197 101.257V103.757H55.6197V101.257H53.1197ZM29.7364 101.257H27.2364V103.757H29.7364V101.257ZM29.7364 80.6447H32.2364V78.1447H29.7364V80.6447ZM10.412 80.6447V55.5293H5.41202V80.6447H10.412ZM7.91202 58.0293H29.7364V53.0293H7.91202V58.0293ZM32.2364 55.5293V34.9174H27.2364V55.5293H32.2364ZM29.7364 37.4174H53.1197V32.4174H29.7364V37.4174ZM50.6197 34.9174V55.5293H55.6197V34.9174H50.6197ZM53.1197 58.0293H75.2905V53.0293H53.1197V58.0293ZM72.7905 55.5293V80.6447H77.7905V55.5293H72.7905ZM75.2905 78.1447H53.1197V83.1447H75.2905V78.1447ZM50.6197 80.6447V101.257H55.6197V80.6447H50.6197ZM53.1197 98.7566H29.7364V103.757H53.1197V98.7566ZM32.2364 101.257V80.6447H27.2364V101.257H32.2364ZM29.7364 78.1447H7.91202V83.1447H29.7364V78.1447ZM86.2698 131.395H83.7698V133.895H86.2698V131.395ZM86.2698 109.498L84.623 107.617L83.7698 108.364V109.498H86.2698ZM132.217 69.2709L133.864 71.1519L133.879 71.1385L133.894 71.1248L132.217 69.2709ZM141.013 60.7212L142.838 62.4301L142.844 62.4229L142.851 62.4157L141.013 60.7212ZM146.549 52.848L148.799 53.9379L148.802 53.931L148.805 53.9242L146.549 52.848ZM146.18 35.2565L144.042 36.553L144.047 36.5608L144.052 36.5687L146.18 35.2565ZM139.906 29.4746L138.774 31.7038L139.906 29.4746ZM121.576 29.5976L122.749 31.8054L122.762 31.7983L122.776 31.7911L121.576 29.5976ZM115.425 35.687L113.238 34.4758L113.231 34.4887L113.224 34.5018L115.425 35.687ZM113.272 45.4054V47.9054H115.772V45.4054H113.272ZM84.4245 45.4054H81.9245V47.9054H84.4245V45.4054ZM90.2064 23.2007L92.3326 24.5156V24.5156L90.2064 23.2007ZM106.445 8.80758L107.531 11.0593L107.536 11.0567L106.445 8.80758ZM155.775 8.50004L156.807 6.22322L155.775 8.50004ZM172.136 21.909L170.061 23.3026L170.067 23.3111L170.072 23.3196L172.136 21.909ZM175.089 56.0465L172.775 55.1007V55.1007L175.089 56.0465ZM164.694 71.6698L162.815 70.0206L162.808 70.0283L164.694 71.6698ZM143.535 92.1523L141.894 90.2661L141.866 90.29L141.84 90.3147L143.535 92.1523ZM128.465 106.053L126.77 104.216L125.965 104.958V106.053H128.465ZM128.465 106.853H125.965V109.353H128.465V106.853ZM179.517 106.853H182.017V104.353H179.517V106.853ZM179.517 131.395V133.895H182.017V131.395H179.517ZM88.7698 131.395V109.498H83.7698V131.395H88.7698ZM87.9166 111.379L133.864 71.1519L130.57 67.39L84.623 107.617L87.9166 111.379ZM133.894 71.1248C137.375 67.9754 140.359 65.0765 142.838 62.4301L139.188 59.0123C136.828 61.5326 133.948 64.3335 130.54 67.4171L133.894 71.1248ZM142.851 62.4157C145.401 59.6498 147.4 56.8258 148.799 53.9379L144.299 51.7582C143.155 54.119 141.464 56.5438 139.175 59.0267L142.851 62.4157ZM148.805 53.9242C150.245 50.9042 150.955 47.643 150.955 44.1753H145.955C145.955 46.9404 145.394 49.4611 144.292 51.7718L148.805 53.9242ZM150.955 44.1753C150.955 40.3222 150.114 36.8734 148.307 33.9442L144.052 36.5687C145.28 38.5602 145.955 41.0573 145.955 44.1753H150.955ZM148.317 33.9599C146.553 31.0509 144.109 28.8048 141.037 27.2454L138.774 31.7038C141.033 32.8508 142.772 34.4592 144.042 36.553L148.317 33.9599ZM141.037 27.2454C137.971 25.6889 134.519 24.9448 130.741 24.9448V29.9448C133.852 29.9448 136.509 30.554 138.774 31.7038L141.037 27.2454ZM130.741 24.9448C126.906 24.9448 123.425 25.7369 120.376 27.4042L122.776 31.7911C124.975 30.588 127.605 29.9448 130.741 29.9448V24.9448ZM120.403 27.3898C117.34 29.0171 114.942 31.3984 113.238 34.4758L117.612 36.8983C118.86 34.6449 120.563 32.9666 122.749 31.8054L120.403 27.3898ZM113.224 34.5018C111.548 37.6141 110.772 41.2835 110.772 45.4054H115.772C115.772 41.9003 116.432 39.0907 117.626 36.8723L113.224 34.5018ZM113.272 42.9054H84.4245V47.9054H113.272V42.9054ZM86.9245 45.4054C86.9245 37.2198 88.7613 30.2906 92.3326 24.5156L88.0801 21.8858C83.9424 28.5766 81.9245 36.4506 81.9245 45.4054H86.9245ZM92.3326 24.5156C95.9224 18.7108 100.963 14.2271 107.531 11.0593L105.359 6.55585C97.984 10.113 92.1994 15.2247 88.0801 21.8858L92.3326 24.5156ZM107.536 11.0567C114.15 7.84664 121.904 6.20234 130.864 6.20234V1.20234C121.289 1.20234 112.764 2.96153 105.353 6.55852L107.536 11.0567ZM130.864 6.20234C140.143 6.20234 148.08 7.75566 154.742 10.7769L156.807 6.22322C149.364 2.84748 140.693 1.20234 130.864 1.20234V6.20234ZM154.742 10.7769C161.425 13.8072 166.495 17.9923 170.061 23.3026L174.212 20.5154C170.068 14.344 164.231 9.58984 156.807 6.22322L154.742 10.7769ZM170.072 23.3196C173.658 28.5653 175.48 34.6858 175.48 41.7764H180.48C180.48 33.7768 178.406 26.6524 174.2 20.4984L170.072 23.3196ZM175.48 41.7764C175.48 46.2301 174.587 50.6664 172.775 55.1007L177.403 56.9923C179.445 51.9952 180.48 46.9182 180.48 41.7764H175.48ZM172.775 55.1007C170.99 59.4665 167.715 64.4376 162.815 70.0207L166.573 73.3189C171.678 67.5023 175.333 62.0579 177.403 56.9923L172.775 55.1007ZM162.808 70.0283C157.953 75.6052 150.996 82.3474 141.894 90.2661L145.176 94.0384C154.362 86.0468 161.511 79.134 166.579 73.3112L162.808 70.0283ZM141.84 90.3147L126.77 104.216L130.16 107.891L145.23 93.9899L141.84 90.3147ZM125.965 106.053V106.853H130.965V106.053H125.965ZM128.465 109.353H179.517V104.353H128.465V109.353ZM177.017 106.853V131.395H182.017V106.853H177.017ZM179.517 128.895H86.2698V133.895H179.517V128.895ZM211.807 128.135L210.752 130.402L211.807 128.135ZM194.892 114.419L192.848 115.858L192.854 115.868L194.892 114.419ZM188.495 94.3666V91.8666H185.94L185.995 94.4209L188.495 94.3666ZM218.019 94.3666L220.515 94.234L220.39 91.8666H218.019V94.3666ZM223.678 105.561L222.113 107.511L222.12 107.517L222.127 107.522L223.678 105.561ZM246.436 107.222L245.199 105.05L246.436 107.222ZM253.387 100.148L255.573 101.36L255.577 101.354L255.58 101.348L253.387 100.148ZM255.847 89.5689L253.347 89.5436L253.347 89.5692L253.347 89.5947L255.847 89.5689ZM253.325 78.9278L251.138 80.1394L251.145 80.1507L251.151 80.1619L253.325 78.9278ZM246.313 71.8543L245.053 74.0138L245.071 74.024L245.089 74.034L246.313 71.8543ZM236.103 69.2709L236.075 71.7708L236.089 71.7709H236.103V69.2709ZM225.708 71.6698L224.59 69.4337L224.578 69.4394L225.708 71.6698ZM218.327 78.3743L217.865 80.8314L219.583 81.1537L220.476 79.6513L218.327 78.3743ZM191.447 73.3305L188.955 73.1296L188.774 75.3726L190.986 75.7876L191.447 73.3305ZM196.921 5.42459V2.92459H194.615L194.43 5.2237L196.921 5.42459ZM277.744 5.42459H280.244V2.92459H277.744V5.42459ZM277.744 29.9667V32.4667H280.244V29.9667H277.744ZM221.956 29.9667V27.4667H219.687L219.467 29.7246L221.956 29.9667ZM219.065 59.6755L216.576 59.4334L216.31 62.1755H219.065V59.6755ZM219.803 59.6755V62.1755H221.218L221.946 60.9618L219.803 59.6755ZM229.89 51.0643L230.984 53.3122L230.992 53.3082L229.89 51.0643ZM265.996 52.9095L264.714 55.0559L264.723 55.0611L264.732 55.0663L265.996 52.9095ZM280.02 67.4257L277.829 68.6299L277.835 68.641L280.02 67.4257ZM279.036 111.712L276.905 110.405L276.899 110.414L279.036 111.712ZM261.936 127.458L263.084 129.679L263.089 129.677L261.936 127.458ZM236.287 130.617C227.406 130.617 219.615 129.013 212.862 125.869L210.752 130.402C218.268 133.9 226.798 135.617 236.287 135.617V130.617ZM212.862 125.869C206.078 122.711 200.795 118.404 196.929 112.97L192.854 115.868C197.272 122.078 203.265 126.916 210.752 130.402L212.862 125.869ZM196.936 112.979C193.139 107.587 191.148 101.392 190.994 94.3123L185.995 94.4209C186.169 102.432 188.443 109.604 192.848 115.858L196.936 112.979ZM188.495 96.8666H218.019V91.8666H188.495V96.8666ZM215.523 94.4992C215.805 99.8224 218.015 104.223 222.113 107.511L225.242 103.611C222.287 101.241 220.725 98.1782 220.515 94.234L215.523 94.4992ZM222.127 107.522C226.134 110.69 230.896 112.244 236.287 112.244V107.244C231.919 107.244 228.275 106.009 225.228 103.6L222.127 107.522ZM236.287 112.244C240.48 112.244 244.299 111.316 247.673 109.394L245.199 105.05C242.668 106.491 239.721 107.244 236.287 107.244V112.244ZM247.673 109.394C251.033 107.481 253.675 104.787 255.573 101.36L251.2 98.9369C249.736 101.579 247.744 103.6 245.199 105.05L247.673 109.394ZM255.58 101.348C257.493 97.8485 258.392 93.8899 258.347 89.5431L253.347 89.5947C253.384 93.2031 252.643 96.2975 251.193 98.9493L255.58 101.348ZM258.347 89.5941C258.392 85.1664 257.473 81.1708 255.499 77.6938L251.151 80.1619C252.622 82.7538 253.384 85.8522 253.347 89.5436L258.347 89.5941ZM255.512 77.7162C253.608 74.2805 250.94 71.5855 247.537 69.6746L245.089 74.034C247.673 75.4856 249.679 77.5063 251.138 80.1394L255.512 77.7162ZM247.573 69.6949C244.191 67.7222 240.342 66.7709 236.103 66.7709V71.7709C239.572 71.7709 242.53 72.5419 245.053 74.0138L247.573 69.6949ZM236.131 66.7711C232.082 66.7256 228.224 67.6166 224.59 69.4337L226.826 73.9059C229.752 72.4425 232.825 71.7343 236.075 71.7708L236.131 66.7711ZM224.578 69.4394C220.961 71.2712 218.126 73.8181 216.177 77.0972L220.476 79.6513C221.89 77.2716 223.976 75.3489 226.837 73.9002L224.578 69.4394ZM218.788 75.9171L191.908 70.8734L190.986 75.7876L217.865 80.8314L218.788 75.9171ZM193.939 73.5314L199.413 5.62548L194.43 5.2237L188.955 73.1296L193.939 73.5314ZM196.921 7.92459H277.744V2.92459H196.921V7.92459ZM275.244 5.42459V29.9667H280.244V5.42459H275.244ZM277.744 27.4667H221.956V32.4667H277.744V27.4667ZM219.467 29.7246L216.576 59.4334L221.553 59.9177L224.444 30.2088L219.467 29.7246ZM219.065 62.1755H219.803V57.1755H219.065V62.1755ZM221.946 60.9618C223.729 57.9901 226.67 55.4119 230.984 53.3121L228.796 48.8164C223.843 51.2273 220.059 54.3899 217.659 58.3893L221.946 60.9618ZM230.992 53.3082C235.279 51.2027 240.203 50.1198 245.821 50.1198V45.1198C239.547 45.1198 233.851 46.3331 228.788 48.8204L230.992 53.3082ZM245.821 50.1198C252.96 50.1198 259.234 51.7829 264.714 55.0559L267.278 50.7632C260.948 46.9831 253.772 45.1198 245.821 45.1198V50.1198ZM264.732 55.0663C270.278 58.3177 274.637 62.8228 277.829 68.6299L282.211 66.2214C278.596 59.6447 273.605 54.4724 267.26 50.7528L264.732 55.0663ZM277.835 68.641C281.048 74.4155 282.687 81.0814 282.687 88.7078H287.687C287.687 80.3418 285.882 72.8196 282.205 66.2103L277.835 68.641ZM282.687 88.7078C282.687 96.9478 280.74 104.154 276.905 110.405L281.167 113.019C285.533 105.902 287.687 97.7723 287.687 88.7078H282.687ZM276.899 110.414C273.091 116.684 267.742 121.625 260.784 125.24L263.089 129.677C270.811 125.665 276.862 120.108 281.173 113.01L276.899 110.414ZM260.789 125.238C253.907 128.795 245.765 130.617 236.287 130.617V135.617C246.41 135.617 255.368 133.667 263.084 129.679L260.789 125.238ZM316.922 126.659L315.546 128.746L315.553 128.75L316.922 126.659ZM298.531 104.085L296.241 105.087L296.242 105.091L298.531 104.085ZM292.134 68.5943L289.634 68.5869L292.134 68.5943ZM298.593 33.4112L296.309 32.3949L296.307 32.3994L298.593 33.4112ZM316.922 11.3295L318.266 13.4377L318.269 13.4359L316.922 11.3295ZM373.757 11.3295L372.41 13.4359L372.417 13.44L372.423 13.444L373.757 11.3295ZM392.209 33.4112L394.494 32.3949L392.209 33.4112ZM398.606 68.5943L396.106 68.5869V68.5943H398.606ZM392.148 104.147L389.858 103.144L392.148 104.147ZM373.757 126.72L375.123 128.814L375.126 128.812L373.757 126.72ZM361.27 99.5334L363.407 100.831L363.411 100.825L361.27 99.5334ZM367.298 68.5943H364.798V68.6017L367.298 68.5943ZM364.53 46.082L362.143 46.823L362.144 46.8277L364.53 46.082ZM356.842 32.7961L358.501 30.9263L356.842 32.7961ZM329.532 38.3319L331.664 39.6377L331.667 39.6318L329.532 38.3319ZM323.442 68.5943L325.942 68.6054V68.6019L323.442 68.5943ZM326.087 91.5372L323.691 92.2496L323.693 92.257L323.695 92.2645L326.087 91.5372ZM333.837 105.131L332.164 106.988L332.17 106.994L332.176 106.999L333.837 105.131ZM345.34 131.97C334.759 131.97 325.779 129.469 318.292 124.567L315.553 128.75C323.976 134.264 333.941 136.97 345.34 136.97V131.97ZM318.299 124.572C310.794 119.62 304.957 112.495 300.82 103.079L296.242 105.091C300.717 115.276 307.141 123.2 315.546 128.746L318.299 124.572ZM300.822 103.083C296.689 93.637 294.594 82.1689 294.634 68.6018L289.634 68.5869C289.593 82.6578 291.762 94.8502 296.241 105.087L300.822 103.083ZM294.634 68.6018C294.675 55.026 296.791 43.6609 300.879 34.4229L296.307 32.3994C291.866 42.4343 289.676 54.5247 289.634 68.5869L294.634 68.6018ZM300.877 34.4274C305.009 25.1389 310.818 18.1847 318.266 13.4377L315.579 9.2212C307.199 14.5617 300.787 22.3287 296.309 32.3949L300.877 34.4274ZM318.269 13.4359C325.76 8.648 334.747 6.20234 345.34 6.20234V1.20234C333.953 1.20234 323.996 3.84142 315.576 9.22299L318.269 13.4359ZM345.34 6.20234C355.932 6.20234 364.92 8.648 372.41 13.4359L375.103 9.22299C366.684 3.84142 356.727 1.20234 345.34 1.20234V6.20234ZM372.423 13.444C379.951 18.1926 385.796 25.1457 389.925 34.4274L394.494 32.3949C390.012 22.3219 383.554 14.5538 375.09 9.21496L372.423 13.444ZM389.925 34.4274C394.051 43.7013 396.147 55.06 396.106 68.5869L401.106 68.6018C401.148 54.5727 398.979 42.4759 394.494 32.3949L389.925 34.4274ZM396.106 68.5943C396.106 82.2054 393.991 93.6965 389.858 103.144L394.438 105.149C398.916 94.9137 401.106 82.7033 401.106 68.5943H396.106ZM389.858 103.144C385.721 112.601 379.885 119.72 372.387 124.629L375.126 128.812C383.539 123.305 389.964 115.375 394.438 105.149L389.858 103.144ZM372.39 124.627C364.947 129.486 355.968 131.97 345.34 131.97V136.97C356.773 136.97 366.739 134.288 375.123 128.814L372.39 124.627ZM345.34 112.059C352.954 112.059 358.996 108.094 363.407 100.831L359.134 98.2356C355.425 104.341 350.847 107.059 345.34 107.059V112.059ZM363.411 100.825C367.826 93.5104 369.84 82.6401 369.798 68.587L364.798 68.6017C364.839 82.3506 362.834 92.1064 359.13 98.2414L363.411 100.825ZM369.798 68.5943C369.798 59.3456 368.864 51.5673 366.917 45.3363L362.144 46.8277C363.888 52.4065 364.798 59.6364 364.798 68.5943H369.798ZM366.918 45.341C364.991 39.1329 362.237 34.2418 358.501 30.9263L355.182 34.6659C358.007 37.1732 360.379 41.1394 362.143 46.823L366.918 45.341ZM358.501 30.9263C354.763 27.6087 350.339 25.929 345.34 25.929V30.929C349.116 30.929 352.359 32.1606 355.182 34.6659L358.501 30.9263ZM345.34 25.929C337.773 25.929 331.77 29.8469 327.396 37.032L331.667 39.6318C335.331 33.6129 339.866 30.929 345.34 30.929V25.929ZM327.4 37.0261C323.021 44.1753 320.984 54.8206 320.942 68.5868L325.942 68.6019C325.983 55.1401 328.005 45.6104 331.664 39.6377L327.4 37.0261ZM320.942 68.5832C320.901 77.9533 321.793 85.8654 323.691 92.2496L328.484 90.8248C326.773 85.0712 325.902 77.6881 325.942 68.6054L320.942 68.5832ZM323.695 92.2645C325.62 98.5954 328.392 103.588 332.164 106.988L335.511 103.274C332.64 100.686 330.245 96.6167 328.479 90.8099L323.695 92.2645ZM332.176 106.999C335.944 110.348 340.366 112.059 345.34 112.059V107.059C341.62 107.059 338.373 105.818 335.498 103.262L332.176 106.999ZM436.182 131.395H433.682V133.895H436.182V131.395ZM436.182 5.42459V2.92459H433.682V5.42459H436.182ZM522.172 5.42459H524.672V2.92459H522.172V5.42459ZM522.172 30.1512V32.6512H524.672V30.1512H522.172ZM466.629 30.1512V27.6512H464.129V30.1512H466.629ZM466.629 55.985H464.129V58.485H466.629V55.985ZM516.697 55.985H519.197V53.485H516.697V55.985ZM516.697 80.7731V83.2731H519.197V80.7731H516.697ZM466.629 80.7731V78.2731H464.129V80.7731H466.629ZM466.629 131.395V133.895H469.129V131.395H466.629ZM438.682 131.395V5.42459H433.682V131.395H438.682ZM436.182 7.92459H522.172V2.92459H436.182V7.92459ZM519.672 5.42459V30.1512H524.672V5.42459H519.672ZM522.172 27.6512H466.629V32.6512H522.172V27.6512ZM464.129 30.1512V55.985H469.129V30.1512H464.129ZM466.629 58.485H516.697V53.485H466.629V58.485ZM514.197 55.985V80.7731H519.197V55.985H514.197ZM516.697 78.2731H466.629V83.2731H516.697V78.2731ZM464.129 80.7731V131.395H469.129V80.7731H464.129ZM466.629 128.895H436.182V133.895H466.629V128.895ZM596.933 43.1911L594.443 43.4174L594.65 45.6911H596.933V43.1911ZM591.459 32.6731L589.903 34.6301L589.917 34.6411L589.931 34.6518L591.459 32.6731ZM567.901 30.3972L566.991 28.0686V28.0686L567.901 30.3972ZM561.996 34.6414L564.001 36.1339L564.01 36.1229L564.018 36.1118L561.996 34.6414ZM559.966 40.7308L562.464 40.8394L562.465 40.8074L562.466 40.7754L559.966 40.7308ZM561.073 45.713L558.903 46.9533L558.916 46.9764L558.929 46.9992L561.073 45.713ZM564.764 49.5265L563.341 51.582L563.371 51.6028L563.401 51.6227L564.764 49.5265ZM570.669 52.356L571.509 50.0016L570.669 52.356ZM578.419 54.5088L578.973 52.0709L578.958 52.0675L578.943 52.0643L578.419 54.5088ZM589.244 56.9691L588.69 59.407L588.702 59.4097L588.714 59.4122L589.244 56.9691ZM605.729 62.3819L604.658 64.6409L604.665 64.6444L605.729 62.3819ZM617.784 70.4396L616.051 72.2412L616.057 72.2467L616.063 72.2521L617.784 70.4396ZM625.227 81.2037L622.917 82.1602L625.227 81.2037ZM627.81 94.8587L630.31 94.8716L630.31 94.855L630.31 94.8383L627.81 94.8587ZM621.783 115.341L619.732 113.91L621.783 115.341ZM604.622 128.443L603.68 126.127L603.675 126.129L604.622 128.443ZM550.186 128.258L551.121 125.939L550.186 128.258ZM531.918 113.865L529.846 115.264L531.918 113.865ZM525.213 89.4459V86.9459H522.682L522.714 89.4771L525.213 89.4459ZM554.369 89.4459L556.864 89.2946L556.722 86.9459H554.369V89.4459ZM557.629 99.5949L555.592 101.045L557.629 99.5949ZM565.563 105.746L564.606 108.055L564.616 108.059L565.563 105.746ZM587.83 106.176L586.941 103.84L586.93 103.844L587.83 106.176ZM594.534 101.563L592.574 100.011L594.534 101.563ZM596.933 94.7972L599.433 94.8375L599.433 94.7958L599.432 94.7541L596.933 94.7972ZM594.719 88.7078L592.798 90.3082L592.807 90.3196L592.817 90.3309L594.719 88.7078ZM588.076 84.2791L587.087 86.5753L587.106 86.5836L587.125 86.5915L588.076 84.2791ZM576.758 80.7731L576.189 83.2076L576.193 83.2084L576.758 80.7731ZM563.595 77.6977L564.164 75.2632L564.154 75.2609L563.595 77.6977ZM537.823 65.5804L536.155 67.4429L536.162 67.4489L537.823 65.5804ZM528.473 42.8221L530.973 42.8328L530.973 42.8209L530.973 42.8089L528.473 42.8221ZM534.747 22.3396L532.719 20.8784L534.747 22.3396ZM552.277 8.62306L553.283 10.9117V10.9117L552.277 8.62306ZM603.207 8.68456L602.157 10.9533L602.164 10.9569L602.172 10.9605L603.207 8.68456ZM619.999 22.5241L622.077 21.134L619.999 22.5241ZM626.088 43.1911V45.6911H628.615L628.588 43.1649L626.088 43.1911ZM599.423 42.9648C598.957 37.8436 596.838 33.6685 592.987 30.6943L589.931 34.6518C592.558 36.6804 594.089 39.5173 594.443 43.4174L599.423 42.9648ZM593.014 30.716C589.211 27.6934 584.004 26.3595 577.742 26.3595V31.3595C583.372 31.3595 587.309 32.5681 589.903 34.6301L593.014 30.716ZM577.742 26.3595C573.609 26.3595 569.996 26.8949 566.991 28.0686L568.81 32.7259C571.054 31.8493 574.002 31.3595 577.742 31.3595V26.3595ZM566.991 28.0686C564.038 29.2222 561.633 30.8902 559.974 33.1709L564.018 36.1118C564.983 34.784 566.515 33.6226 568.81 32.7259L566.991 28.0686ZM559.99 33.1488C558.352 35.3509 557.516 37.8924 557.466 40.6861L562.466 40.7754C562.498 38.9765 563.016 37.4584 564.001 36.1339L559.99 33.1488ZM557.468 40.6222C557.369 42.9113 557.816 45.0525 558.903 46.9533L563.244 44.4726C562.69 43.503 562.399 42.3228 562.464 40.8394L557.468 40.6222ZM558.929 46.9992C560.001 48.7847 561.496 50.3051 563.341 51.582L566.187 47.4711C564.833 46.5336 563.868 45.5117 563.217 44.4267L558.929 46.9992ZM563.401 51.6227C565.239 52.8171 567.391 53.84 569.828 54.7103L571.509 50.0016C569.354 49.2317 567.569 48.3683 566.126 47.4304L563.401 51.6227ZM569.828 54.7103C572.246 55.574 574.938 56.3196 577.895 56.9533L578.943 52.0643C576.159 51.4677 573.684 50.7782 571.509 50.0016L569.828 54.7103ZM577.865 56.9466L588.69 59.407L589.798 54.5313L578.973 52.0709L577.865 56.9466ZM588.714 59.4122C594.798 60.7331 600.105 62.4824 604.658 64.6409L606.8 60.123C601.839 57.7708 596.156 55.9116 589.775 54.526L588.714 59.4122ZM604.665 64.6444C609.259 66.804 613.04 69.3444 616.051 72.2412L619.518 68.638C616.05 65.3019 611.794 62.4705 606.792 60.1194L604.665 64.6444ZM616.063 72.2521C619.097 75.1349 621.374 78.4337 622.917 82.1602L627.537 80.2471C625.718 75.8545 623.033 71.9772 619.506 68.6271L616.063 72.2521ZM622.917 82.1602C624.459 85.8823 625.272 90.1096 625.31 94.879L630.31 94.8383C630.267 89.5203 629.358 84.6443 627.537 80.2471L622.917 82.1602ZM625.31 94.8458C625.272 102.369 623.379 108.685 619.732 113.91L623.833 116.772C628.141 110.598 630.267 103.258 630.31 94.8716L625.31 94.8458ZM619.732 113.91C616.073 119.155 610.769 123.245 603.68 126.127L605.563 130.758C613.401 127.572 619.537 122.927 623.833 116.772L619.732 113.91ZM603.675 126.129C596.631 129.009 588.01 130.494 577.742 130.494V135.494C588.469 135.494 597.768 133.945 605.568 130.757L603.675 126.129ZM577.742 130.494C567.447 130.494 558.592 128.951 551.121 125.939L549.251 130.577C557.444 133.88 566.96 135.494 577.742 135.494V130.494ZM551.121 125.939C543.709 122.951 538.033 118.455 533.99 112.466L529.846 115.264C534.496 122.151 540.999 127.25 549.251 130.577L551.121 125.939ZM533.99 112.466C529.981 106.528 527.832 98.8979 527.713 89.4146L522.714 89.4771C522.841 99.6767 525.162 108.326 529.846 115.264L533.99 112.466ZM525.213 91.9459H554.369V86.9459H525.213V91.9459ZM551.873 89.5971C552.141 94.0192 553.338 97.8798 555.592 101.045L559.665 98.1447C558.065 95.8972 557.088 92.9918 556.864 89.2946L551.873 89.5971ZM555.592 101.045C557.817 104.169 560.853 106.499 564.606 108.055L566.521 103.436C563.549 102.204 561.295 100.433 559.665 98.1447L555.592 101.045ZM564.616 108.059C568.377 109.6 572.646 110.337 577.373 110.337V105.337C573.16 105.337 569.557 104.68 566.511 103.432L564.616 108.059ZM577.373 110.337C581.685 110.337 585.494 109.757 588.729 108.509L586.93 103.844C584.424 104.81 581.262 105.337 577.373 105.337V110.337ZM588.718 108.513C591.95 107.284 594.596 105.513 596.494 103.115L592.574 100.011C591.356 101.55 589.532 102.854 586.941 103.84L588.718 108.513ZM596.494 103.115C598.398 100.71 599.383 97.9216 599.433 94.8375L594.433 94.7568C594.401 96.7574 593.786 98.4799 592.574 100.011L596.494 103.115ZM599.432 94.7541C599.382 91.843 598.462 89.242 596.62 87.0846L592.817 90.3309C593.846 91.5361 594.401 92.9946 594.433 94.8403L599.432 94.7541ZM596.639 87.1073C594.853 84.9644 592.24 83.2877 589.026 81.9668L587.125 86.5915C589.898 87.7309 591.713 89.0066 592.798 90.3082L596.639 87.1073ZM589.064 81.9829C585.928 80.6326 582 79.4237 577.323 78.3379L576.193 83.2084C580.701 84.2549 584.318 85.3833 587.087 86.5753L589.064 81.9829ZM577.327 78.3387L564.164 75.2632L563.026 80.1321L576.189 83.2076L577.327 78.3387ZM564.154 75.2609C553.524 72.8233 545.357 68.9322 539.484 63.7119L536.162 67.4489C542.837 73.3822 551.851 77.5693 563.036 80.1344L564.154 75.2609ZM539.49 63.7179C533.824 58.6437 530.935 51.7793 530.973 42.8328L525.973 42.8113C525.93 52.9736 529.274 61.2814 536.155 67.4429L539.49 63.7179ZM530.973 42.8089C530.935 35.503 532.886 29.2012 536.776 23.8007L532.719 20.8784C528.161 27.2056 525.93 34.5589 525.973 42.8352L530.973 42.8089ZM536.776 23.8007C540.706 18.3436 546.175 14.0361 553.283 10.9117L551.271 6.3344C543.453 9.77099 537.235 14.6078 532.719 20.8784L536.776 23.8007ZM553.283 10.9117C560.38 7.79251 568.537 6.20234 577.804 6.20234V1.20234C567.962 1.20234 559.101 2.89265 551.271 6.3344L553.283 10.9117ZM577.804 6.20234C587.283 6.20234 595.378 7.81553 602.157 10.9533L604.257 6.4158C596.684 2.91063 587.843 1.20234 577.804 1.20234V6.20234ZM602.172 10.9605C609.013 14.07 614.229 18.3959 617.921 23.9142L622.077 21.134C617.813 14.7606 611.835 9.86012 604.241 6.40865L602.172 10.9605ZM617.921 23.9142C621.603 29.4179 623.511 35.8231 623.588 43.2173L628.588 43.1649C628.501 34.8948 626.35 27.522 622.077 21.134L617.921 23.9142ZM626.088 40.6911H596.933V45.6911H626.088V40.6911Z" fill="url(#paint1_linear_1_3795)"/>
</g>
<defs>
<filter id="filter0_d_1_3795" x="0.511987" y="0.302392" width="634.698" height="145.568" filterUnits="userSpaceOnUse" color-interpolation-filters="sRGB">
<feFlood flood-opacity="0" result="BackgroundImageFix"/>
<feColorMatrix in="SourceAlpha" type="matrix" values="0 0 0 0 0 0 0 0 0 0 0 0 0 0 0 0 0 0 127 0" result="hardAlpha"/>
<feOffset dy="4"/>
<feGaussianBlur stdDeviation="2.45"/>
<feComposite in2="hardAlpha" operator="out"/>
<feColorMatrix type="matrix" values="0 0 0 0 0.470508 0 0 0 0 0.0205847 0 0 0 0 0.0298935 0 0 0 1 0"/>
<feBlend mode="normal" in2="BackgroundImageFix" result="effect1_dropShadow_1_3795"/>
<feBlend mode="normal" in="SourceGraphic" in2="effect1_dropShadow_1_3795" result="shape"/>
</filter>
<linearGradient id="paint0_linear_1_3795" x1="372.493" y1="4.03754" x2="372.299" y2="131.003" gradientUnits="userSpaceOnUse">
<stop offset="0.01" stop-color="#BFA34E"/>
<stop offset="0.3" stop-color="#FFD66C"/>
<stop offset="0.535" stop-color="#FFF4D8"/>
<stop offset="0.67" stop-color="#5E4618"/>
<stop offset="0.775" stop-color="#F5DF71"/>
</linearGradient>
<linearGradient id="paint1_linear_1_3795" x1="384" y1="155" x2="387.023" y2="-55.0428" gradientUnits="userSpaceOnUse">
<stop offset="0.01" stop-color="#BFA34E"/>
<stop offset="0.3" stop-color="#FFD66C"/>
<stop offset="0.54" stop-color="#FFF4D8"/>
<stop offset="0.67" stop-color="#5E4618"/>
<stop offset="0.775" stop-color="#F5DF71"/>
</linearGradient>
</defs>
</svg>
