<svg width="271" height="63" viewBox="0 0 271 63" fill="none" xmlns="http://www.w3.org/2000/svg">
<g filter="url(#filter0_d_54_10894)">
<path d="M4.03862 34.3102V23.6297H13.3196V14.8644H23.2635V23.6297H32.6918V34.3102H23.2635V43.0756H13.3196V34.3102H4.03862ZM37.3609 55.8922V46.5803L56.9003 29.4735C58.3651 28.1482 59.6119 26.9362 60.6408 25.8376C61.6696 24.7216 62.4543 23.6055 62.9949 22.4895C63.5355 21.356 63.8058 20.1266 63.8058 18.8013C63.8058 17.3191 63.4832 16.0548 62.838 15.0085C62.1928 13.9448 61.3034 13.1252 60.1699 12.5498C59.0365 11.9743 57.7373 11.6866 56.2725 11.6866C54.7903 11.6866 53.4911 11.9918 52.3751 12.6021C51.2591 13.195 50.3871 14.0582 49.7594 15.1916C49.149 16.3251 48.8439 17.7027 48.8439 19.3245H36.5762C36.5762 15.6799 37.3957 12.5323 39.0349 9.88174C40.6741 7.23114 42.9759 5.19088 45.9404 3.76096C48.9223 2.31359 52.3838 1.58991 56.3248 1.58991C60.3879 1.58991 63.9191 2.27 66.9185 3.63017C69.9178 4.99035 72.2371 6.8911 73.8763 9.33244C75.5329 11.7563 76.3612 14.5726 76.3612 17.7812C76.3612 19.8215 75.9514 21.8443 75.1318 23.8497C74.3122 25.8551 72.8387 28.0697 70.7113 30.4936C68.6013 32.9175 65.6019 35.8209 61.7132 39.2039L55.3047 45.1155V45.4555H77.0151V55.8922H37.3609ZM101.157 56.6246C97.2508 56.6246 93.7806 55.9184 90.7464 54.5059C87.7121 53.0934 85.3144 51.149 83.5531 48.6728C81.8093 46.1966 80.9025 43.3542 80.8328 40.1456H93.3882C93.4929 42.1161 94.295 43.703 95.7947 44.9062C97.2944 46.092 99.0818 46.6849 101.157 46.6849C102.779 46.6849 104.217 46.3274 105.473 45.6124C106.728 44.8975 107.714 43.8948 108.429 42.6044C109.144 41.2965 109.492 39.7968 109.475 38.1053C109.492 36.379 109.135 34.8706 108.402 33.5801C107.687 32.2897 106.694 31.287 105.421 30.5721C104.165 29.8397 102.718 29.4735 101.078 29.4735C99.5264 29.456 98.0529 29.7961 96.6579 30.4936C95.2803 31.1911 94.234 32.1415 93.519 33.3447L82.0883 31.1998L84.4163 2.32231H118.787V12.759H95.0623L93.8329 25.3929H94.1468C95.0361 23.9107 96.4661 22.69 98.4366 21.7309C100.425 20.7544 102.683 20.2661 105.211 20.2661C108.42 20.2661 111.28 21.016 113.791 22.5157C116.319 23.9979 118.307 26.0556 119.755 28.6887C121.219 31.3219 121.952 34.3387 121.952 37.7391C121.952 41.4186 121.08 44.6795 119.336 47.5219C117.61 50.3643 115.186 52.5964 112.064 54.2182C108.96 55.8225 105.325 56.6246 101.157 56.6246ZM147.532 57.2001C142.859 57.2001 138.831 56.0928 135.448 53.8781C132.065 51.646 129.458 48.4461 127.627 44.2784C125.796 40.0933 124.889 35.0624 124.906 29.1857C124.924 23.3091 125.839 18.3218 127.653 14.2238C129.484 10.1084 132.082 6.97829 135.448 4.8334C138.831 2.67108 142.859 1.58991 147.532 1.58991C152.206 1.58991 156.234 2.67108 159.617 4.8334C163.017 6.97829 165.633 10.1084 167.464 14.2238C169.295 18.3392 170.202 23.3265 170.184 29.1857C170.184 35.0798 169.269 40.1194 167.438 44.3046C165.607 48.4897 163 51.6896 159.617 53.9043C156.251 56.1015 152.223 57.2001 147.532 57.2001ZM147.532 46.6064C150.322 46.6064 152.581 45.1852 154.307 42.3428C156.033 39.4829 156.888 35.0973 156.87 29.1857C156.87 25.3145 156.478 22.1233 155.693 19.6122C154.909 17.0837 153.819 15.2004 152.424 13.9623C151.029 12.7242 149.398 12.1051 147.532 12.1051C144.76 12.1051 142.519 13.5089 140.81 16.3164C139.101 19.1065 138.238 23.3963 138.22 29.1857C138.203 33.1093 138.578 36.3615 139.345 38.9424C140.13 41.5232 141.228 43.4501 142.641 44.7231C144.053 45.9786 145.684 46.6064 147.532 46.6064ZM186.164 55.8922V2.32231H222.732V12.8375H199.112V23.8235H220.404V34.3649H199.112V55.8922H186.164ZM254.524 18.3828C254.35 16.4646 253.574 14.9737 252.196 13.9099C250.836 12.8288 248.892 12.2882 246.363 12.2882C244.689 12.2882 243.294 12.5062 242.178 12.9421C241.062 13.3781 240.225 13.9797 239.667 14.747C239.109 15.4968 238.821 16.36 238.804 17.3365C238.769 18.1387 238.926 18.8449 239.275 19.4553C239.641 20.0656 240.164 20.6062 240.844 21.077C241.542 21.5304 242.379 21.9315 243.355 22.2802C244.332 22.629 245.43 22.9342 246.651 23.1957L251.255 24.242C253.905 24.8175 256.242 25.5848 258.265 26.5439C260.305 27.503 262.014 28.6452 263.392 29.9704C264.787 31.2957 265.842 32.8216 266.557 34.548C267.272 36.2743 267.638 38.21 267.655 40.3548C267.638 43.7378 266.783 46.6413 265.092 49.0652C263.4 51.4891 260.968 53.3462 257.794 54.6367C254.638 55.9271 250.827 56.5723 246.363 56.5723C241.882 56.5723 237.976 55.9009 234.645 54.5582C231.314 53.2155 228.725 51.1752 226.876 48.4374C225.028 45.6996 224.077 42.2382 224.025 38.053H236.424C236.528 39.7794 236.99 41.218 237.81 42.369C238.629 43.5199 239.754 44.3918 241.184 44.9847C242.631 45.5776 244.306 45.874 246.206 45.874C247.95 45.874 249.432 45.6386 250.653 45.1678C251.891 44.6969 252.842 44.043 253.504 43.206C254.167 42.369 254.507 41.4099 254.524 40.3287C254.507 39.3173 254.193 38.4541 253.583 37.7391C252.972 37.0067 252.031 36.379 250.758 35.8558C249.502 35.3152 247.898 34.8182 245.945 34.3649L240.347 33.057C235.709 31.9933 232.055 30.2756 229.387 27.904C226.719 25.515 225.394 22.289 225.411 18.2259C225.394 14.9126 226.283 12.0092 228.079 9.51554C229.876 7.02189 232.36 5.07754 235.534 3.68249C238.708 2.28744 242.326 1.58991 246.389 1.58991C250.54 1.58991 254.141 2.29616 257.192 3.70864C260.261 5.10369 262.642 7.06548 264.333 9.59401C266.025 12.1225 266.888 15.0521 266.923 18.3828H254.524Z" fill="url(#paint0_linear_54_10894)"/>
<path d="M4.03862 34.3102H2.97547V35.3734H4.03862V34.3102ZM4.03862 23.6297V22.5666H2.97547V23.6297H4.03862ZM13.3196 23.6297V24.6929H14.3827V23.6297H13.3196ZM13.3196 14.8644V13.8012H12.2565V14.8644H13.3196ZM23.2635 14.8644H24.3267V13.8012H23.2635V14.8644ZM23.2635 23.6297H22.2004V24.6929H23.2635V23.6297ZM32.6918 23.6297H33.755V22.5666H32.6918V23.6297ZM32.6918 34.3102V35.3734H33.755V34.3102H32.6918ZM23.2635 34.3102V33.2471H22.2004V34.3102H23.2635ZM23.2635 43.0756V44.1388H24.3267V43.0756H23.2635ZM13.3196 43.0756H12.2565V44.1388H13.3196V43.0756ZM13.3196 34.3102H14.3827V33.2471H13.3196V34.3102ZM5.10176 34.3102V23.6297H2.97547V34.3102H5.10176ZM4.03862 24.6929H13.3196V22.5666H4.03862V24.6929ZM14.3827 23.6297V14.8644H12.2565V23.6297H14.3827ZM13.3196 15.9275H23.2635V13.8012H13.3196V15.9275ZM22.2004 14.8644V23.6297H24.3267V14.8644H22.2004ZM23.2635 24.6929H32.6918V22.5666H23.2635V24.6929ZM31.6287 23.6297V34.3102H33.755V23.6297H31.6287ZM32.6918 33.2471H23.2635V35.3734H32.6918V33.2471ZM22.2004 34.3102V43.0756H24.3267V34.3102H22.2004ZM23.2635 42.0125H13.3196V44.1388H23.2635V42.0125ZM14.3827 43.0756V34.3102H12.2565V43.0756H14.3827ZM13.3196 33.2471H4.03862V35.3734H13.3196V33.2471ZM37.3609 55.8922H36.2977V56.9554H37.3609V55.8922ZM37.3609 46.5803L36.6606 45.7804L36.2977 46.098V46.5803H37.3609ZM56.9003 29.4735L57.6006 30.2734L57.6071 30.2676L57.6136 30.2618L56.9003 29.4735ZM60.6408 25.8376L61.4168 26.5644L61.4224 26.5582L60.6408 25.8376ZM62.9949 22.4895L63.9517 22.953L63.9545 22.9472L62.9949 22.4895ZM62.838 15.0085L61.9289 15.5599L61.933 15.5666L62.838 15.0085ZM60.1699 12.5498L59.6887 13.4977L59.6887 13.4977L60.1699 12.5498ZM52.3751 12.6021L52.8739 13.541L52.8852 13.5349L52.3751 12.6021ZM49.7594 15.1916L48.8293 14.6765L48.8233 14.6876L49.7594 15.1916ZM48.8439 19.3245V20.3876H49.907V19.3245H48.8439ZM36.5762 19.3245H35.513V20.3876H36.5762V19.3245ZM39.0349 9.88174L39.9391 10.4409L39.9391 10.4409L39.0349 9.88174ZM45.9404 3.76096L46.4023 4.71853L46.4047 4.71739L45.9404 3.76096ZM66.9185 3.63017L67.3576 2.66194L67.3576 2.66194L66.9185 3.63017ZM73.8763 9.33244L72.9936 9.92509L72.9986 9.93232L73.8763 9.33244ZM75.1318 23.8497L74.1477 23.4475L74.1477 23.4475L75.1318 23.8497ZM70.7113 30.4936L69.9122 29.7923L69.9094 29.7956L70.7113 30.4936ZM61.7132 39.2039L61.0154 38.4018L61.0037 38.412L60.9924 38.4225L61.7132 39.2039ZM55.3047 45.1155L54.5838 44.334L54.2415 44.6498V45.1155H55.3047ZM55.3047 45.4555H54.2415V46.5186H55.3047V45.4555ZM77.0151 45.4555H78.0783V44.3924H77.0151V45.4555ZM77.0151 55.8922V56.9554H78.0783V55.8922H77.0151ZM38.424 55.8922V46.5803H36.2977V55.8922H38.424ZM38.0612 47.3802L57.6006 30.2734L56.2 28.6736L36.6606 45.7804L38.0612 47.3802ZM57.6136 30.2618C59.0938 28.9225 60.3628 27.6897 61.4167 26.5643L59.8648 25.1109C58.861 26.1827 57.6363 27.3738 56.187 28.6851L57.6136 30.2618ZM61.4224 26.5582C62.5068 25.382 63.3568 24.1811 63.9517 22.953L62.0381 22.026C61.5518 23.03 60.8325 24.0611 59.8591 25.117L61.4224 26.5582ZM63.9545 22.9472C64.567 21.6629 64.8689 20.276 64.8689 18.8013H62.7426C62.7426 19.9772 62.504 21.0492 62.0353 22.0318L63.9545 22.9472ZM64.8689 18.8013C64.8689 17.1628 64.511 15.6962 63.7429 14.4505L61.933 15.5666C62.4553 16.4135 62.7426 17.4754 62.7426 18.8013H64.8689ZM63.747 14.4572C62.9966 13.2201 61.9574 12.2649 60.6512 11.6018L59.6887 13.4977C60.6494 13.9855 61.3889 14.6695 61.929 15.5599L63.747 14.4572ZM60.6512 11.6018C59.3474 10.9399 57.879 10.6234 56.2725 10.6234V12.7497C57.5956 12.7497 58.7255 13.0088 59.6887 13.4977L60.6512 11.6018ZM56.2725 10.6234C54.6416 10.6234 53.1615 10.9603 51.865 11.6693L52.8852 13.5349C53.8207 13.0232 54.9389 12.7497 56.2725 12.7497V10.6234ZM51.8763 11.6632C50.5737 12.3552 49.5541 13.3679 48.8293 14.6766L50.6894 15.7067C51.2201 14.7485 51.9444 14.0348 52.8739 13.541L51.8763 11.6632ZM48.8233 14.6876C48.1106 16.0111 47.7807 17.5716 47.7807 19.3245H49.907C49.907 17.8339 50.1874 16.6391 50.6954 15.6957L48.8233 14.6876ZM48.8439 18.2613H36.5762V20.3876H48.8439V18.2613ZM37.6393 19.3245C37.6393 15.8435 38.4204 12.8968 39.9391 10.4409L38.1307 9.32256C36.3711 12.1679 35.513 15.5164 35.513 19.3245H37.6393ZM39.9391 10.4409C41.4657 7.97239 43.6095 6.06566 46.4023 4.71853L45.4785 2.80339C42.3424 4.31611 39.8825 6.4899 38.1307 9.32256L39.9391 10.4409ZM46.4047 4.71739C49.2171 3.35231 52.5145 2.65306 56.3248 2.65306V0.526768C52.2531 0.526768 48.6276 1.27488 45.4762 2.80453L46.4047 4.71739ZM56.3248 2.65306C60.271 2.65306 63.6463 3.31362 66.4794 4.59841L67.3576 2.66194C64.192 1.22638 60.5048 0.526768 56.3248 0.526768V2.65306ZM66.4794 4.59841C69.3211 5.88708 71.4774 7.66682 72.9936 9.92507L74.7589 8.7398C72.9968 6.11538 70.5146 4.09362 67.3576 2.66194L66.4794 4.59841ZM72.9986 9.93232C74.5232 12.1631 75.2981 14.7659 75.2981 17.7812H77.4244C77.4244 14.3793 76.5427 11.3496 74.754 8.73255L72.9986 9.93232ZM75.2981 17.7812C75.2981 19.6752 74.9184 21.5618 74.1477 23.4475L76.116 24.2519C76.9845 22.1268 77.4244 19.9678 77.4244 17.7812H75.2981ZM74.1477 23.4475C73.3889 25.3041 71.9961 27.4181 69.9122 29.7923L71.5103 31.1949C73.6814 28.7213 75.2356 26.406 76.116 24.2519L74.1477 23.4475ZM69.9094 29.7956C67.8449 32.1672 64.8863 35.0343 61.0154 38.4018L62.411 40.006C66.3175 36.6075 69.3576 33.6678 71.5132 31.1916L69.9094 29.7956ZM60.9924 38.4225L54.5838 44.334L56.0255 45.8969L62.434 39.9854L60.9924 38.4225ZM54.2415 45.1155V45.4555H56.3678V45.1155H54.2415ZM55.3047 46.5186H77.0151V44.3924H55.3047V46.5186ZM75.952 45.4555V55.8922H78.0783V45.4555H75.952ZM77.0151 54.8291H37.3609V56.9554H77.0151V54.8291ZM90.7464 54.5059L90.2977 55.4697L90.2977 55.4697L90.7464 54.5059ZM83.5531 48.6728L82.6839 49.285L82.6868 49.289L83.5531 48.6728ZM80.8328 40.1456V39.0824H79.7463L79.7699 40.1687L80.8328 40.1456ZM93.3882 40.1456L94.4499 40.0892L94.3964 39.0824H93.3882V40.1456ZM95.7947 44.9062L95.1294 45.7355L95.1353 45.7401L95.7947 44.9062ZM105.473 45.6124L104.947 44.6886L104.947 44.6886L105.473 45.6124ZM108.429 42.6044L109.359 43.1196L109.361 43.1143L108.429 42.6044ZM109.475 38.1053L108.412 38.0946L108.412 38.1054L108.412 38.1163L109.475 38.1053ZM108.402 33.5801L107.472 34.0954L107.478 34.1049L108.402 33.5801ZM105.421 30.5721L104.885 31.4904L104.892 31.4948L104.9 31.499L105.421 30.5721ZM101.078 29.4735L101.066 30.5366H101.078V29.4735ZM96.6579 30.4936L96.1824 29.5427L96.1776 29.5451L96.6579 30.4936ZM93.519 33.3447L93.3229 34.3896L94.0534 34.5267L94.433 33.8878L93.519 33.3447ZM82.0883 31.1998L81.0286 31.1144L80.9517 32.0683L81.8923 32.2447L82.0883 31.1998ZM84.4163 2.32231V1.25917H83.4354L83.3566 2.23688L84.4163 2.32231ZM118.787 2.32231H119.85V1.25917H118.787V2.32231ZM118.787 12.759V13.8222H119.85V12.759H118.787ZM95.0623 12.759V11.6959H94.0976L94.0041 12.6561L95.0623 12.759ZM93.8329 25.3929L92.7748 25.29L92.6613 26.4561H93.8329V25.3929ZM94.1468 25.3929V26.4561H94.7487L95.0584 25.9399L94.1468 25.3929ZM98.4366 21.7309L98.9018 22.6869L98.9053 22.6852L98.4366 21.7309ZM113.791 22.5157L113.246 23.4284L113.253 23.4328L113.791 22.5157ZM119.755 28.6887L118.823 29.2009L118.826 29.2056L119.755 28.6887ZM119.336 47.5219L118.43 46.966L118.427 46.97L119.336 47.5219ZM112.064 54.2182L112.553 55.1626L112.555 55.1616L112.064 54.2182ZM101.157 55.5615C97.3801 55.5615 94.0671 54.8791 91.195 53.5421L90.2977 55.4697C93.494 56.9577 97.1215 57.6878 101.157 57.6878V55.5615ZM91.195 53.5421C88.3104 52.1992 86.0634 50.3679 84.4195 48.0566L82.6868 49.289C84.5654 51.9302 87.1138 53.9876 90.2977 55.4697L91.195 53.5421ZM84.4224 48.0607C82.8076 45.7678 81.9611 43.1332 81.8957 40.1225L79.7699 40.1687C79.8439 43.5753 80.811 46.6255 82.6839 49.285L84.4224 48.0607ZM80.8328 41.2087H93.3882V39.0824H80.8328V41.2087ZM92.3266 40.202C92.4468 42.4657 93.3866 44.3371 95.1294 45.7354L96.46 44.077C95.2034 43.0688 94.5389 41.7665 94.4499 40.0892L92.3266 40.202ZM95.1353 45.7401C96.8391 47.0874 98.8642 47.748 101.157 47.748V45.6217C99.2993 45.6217 97.7496 45.0966 96.4541 44.0723L95.1353 45.7401ZM101.157 47.748C102.94 47.748 104.564 47.3533 105.999 46.5363L104.947 44.6886C103.87 45.3015 102.617 45.6217 101.157 45.6217V47.748ZM105.999 46.5363C107.428 45.7227 108.551 44.5769 109.359 43.1196L107.499 42.0891C106.876 43.2126 106.029 44.0723 104.947 44.6886L105.999 46.5363ZM109.361 43.1143C110.175 41.6263 110.557 39.9429 110.538 38.0944L108.412 38.1163C108.428 39.6508 108.112 40.9667 107.496 42.0944L109.361 43.1143ZM110.538 38.1161C110.557 36.2331 110.166 34.534 109.327 33.0554L107.478 34.1049C108.103 35.2072 108.428 36.5248 108.412 38.0946L110.538 38.1161ZM109.332 33.0649C108.523 31.6038 107.388 30.4577 105.941 29.6451L104.9 31.499C105.999 32.1163 106.852 32.9756 107.473 34.0954L109.332 33.0649ZM105.956 29.6537C104.518 28.8149 102.881 28.4103 101.078 28.4103V30.5366C102.554 30.5366 103.812 30.8645 104.885 31.4904L105.956 29.6537ZM101.09 28.4104C99.3685 28.391 97.7279 28.7699 96.1824 29.5427L97.1333 31.4445C98.3779 30.8222 99.6844 30.521 101.066 30.5365L101.09 28.4104ZM96.1776 29.5451C94.6391 30.3241 93.4337 31.4072 92.605 32.8016L94.433 33.8878C95.0343 32.8758 95.9214 32.0582 97.1381 31.4421L96.1776 29.5451ZM93.7151 32.2998L82.2844 30.1549L81.8923 32.2447L93.3229 34.3896L93.7151 32.2998ZM83.148 31.2853L85.476 2.40774L83.3566 2.23688L81.0286 31.1144L83.148 31.2853ZM84.4163 3.38546H118.787V1.25917H84.4163V3.38546ZM117.724 2.32231V12.759H119.85V2.32231H117.724ZM118.787 11.6959H95.0623V13.8222H118.787V11.6959ZM94.0041 12.6561L92.7748 25.29L94.891 25.4959L96.1204 12.862L94.0041 12.6561ZM93.8329 26.4561H94.1468V24.3298H93.8329V26.4561ZM95.0584 25.9399C95.8167 24.6762 97.0672 23.5798 98.9018 22.6869L97.9713 20.775C95.8649 21.8003 94.2556 23.1452 93.2351 24.846L95.0584 25.9399ZM98.9053 22.6852C100.728 21.7898 102.822 21.3293 105.211 21.3293V19.203C102.543 19.203 100.121 19.719 97.9678 20.7767L98.9053 22.6852ZM105.211 21.3293C108.247 21.3293 110.915 22.0366 113.246 23.4284L114.336 21.6029C111.644 19.9954 108.593 19.203 105.211 19.203V21.3293ZM113.253 23.4328C115.612 24.8155 117.466 26.7314 118.823 29.2009L120.686 28.1766C119.149 25.3798 117.027 23.1803 114.328 21.5985L113.253 23.4328ZM118.826 29.2056C120.192 31.6612 120.889 34.4959 120.889 37.7391H123.015C123.015 34.1815 122.247 30.9826 120.684 28.1719L118.826 29.2056ZM120.889 37.7391C120.889 41.2433 120.061 44.3078 118.43 46.966L120.242 48.0779C122.099 45.0512 123.015 41.5939 123.015 37.7391H120.889ZM118.427 46.97C116.808 49.6363 114.533 51.7373 111.574 53.2747L112.555 55.1616C115.838 53.4555 118.411 51.0923 120.245 48.0738L118.427 46.97ZM111.576 53.2737C108.65 54.7863 105.187 55.5615 101.157 55.5615V57.6878C105.462 57.6878 109.271 56.8586 112.553 55.1626L111.576 53.2737ZM135.448 53.8781L134.862 54.7655L134.865 54.7676L135.448 53.8781ZM127.627 44.2784L126.653 44.7046L126.653 44.706L127.627 44.2784ZM124.906 29.1857L123.843 29.1826L123.843 29.1826L124.906 29.1857ZM127.653 14.2238L126.681 13.7917L126.681 13.7936L127.653 14.2238ZM135.448 4.8334L136.019 5.72996L136.02 5.7292L135.448 4.8334ZM159.617 4.8334L159.044 5.72921L159.05 5.73261L159.617 4.8334ZM167.464 14.2238L168.435 13.7917L168.435 13.7917L167.464 14.2238ZM170.184 29.1857L169.121 29.1826V29.1857H170.184ZM167.438 44.3046L166.464 43.8785L166.464 43.8785L167.438 44.3046ZM159.617 53.9043L160.198 54.7945L160.199 54.7938L159.617 53.9043ZM154.307 42.3428L155.216 42.8947L155.217 42.8922L154.307 42.3428ZM156.87 29.1857L155.807 29.1857L155.807 29.1889L156.87 29.1857ZM155.693 19.6122L154.678 19.9273L154.679 19.9293L155.693 19.6122ZM152.424 13.9623L153.129 13.1671L153.129 13.1671L152.424 13.9623ZM140.81 16.3164L141.716 16.8717L141.718 16.8692L140.81 16.3164ZM138.22 29.1857L139.283 29.1905L139.283 29.1889L138.22 29.1857ZM139.345 38.9424L138.326 39.2453L138.328 39.2516L139.345 38.9424ZM142.641 44.7231L141.929 45.5129L141.935 45.5177L142.641 44.7231ZM147.532 56.1369C143.033 56.1369 139.214 55.0731 136.03 52.9886L134.865 54.7676C138.447 57.1124 142.685 58.2632 147.532 58.2632V56.1369ZM136.033 52.9907C132.842 50.8849 130.359 47.8549 128.6 43.8508L126.653 44.706C128.556 49.0373 131.288 52.4072 134.862 54.7655L136.033 52.9907ZM128.601 43.8523C126.843 39.8353 125.952 34.9584 125.969 29.1889L123.843 29.1826C123.825 35.1663 124.748 40.3512 126.653 44.7046L128.601 43.8523ZM125.969 29.1889C125.987 23.4157 126.886 18.5826 128.625 14.6541L126.681 13.7936C124.792 18.061 123.861 23.2025 123.843 29.1826L125.969 29.1889ZM128.624 14.656C130.382 10.706 132.852 7.74863 136.019 5.72996L134.876 3.93685C131.313 6.20795 128.586 9.51091 126.681 13.7917L128.624 14.656ZM136.02 5.7292C139.206 3.6931 143.028 2.65306 147.532 2.65306V0.526768C142.69 0.526768 138.456 1.64906 134.875 3.93761L136.02 5.7292ZM147.532 2.65306C152.037 2.65306 155.859 3.6931 159.044 5.7292L160.189 3.93761C156.609 1.64906 152.375 0.526768 147.532 0.526768V2.65306ZM159.05 5.73261C162.251 7.75201 164.737 10.7089 166.493 14.656L168.435 13.7917C166.53 9.50801 163.783 6.20457 160.184 3.9342L159.05 5.73261ZM166.493 14.656C168.247 18.5998 169.138 23.4301 169.121 29.1826L171.248 29.1889C171.265 23.2229 170.343 18.0787 168.435 13.7917L166.493 14.656ZM169.121 29.1857C169.121 34.974 168.222 39.8606 166.464 43.8785L168.412 44.7307C170.316 40.3783 171.248 35.1857 171.248 29.1857H169.121ZM166.464 43.8785C164.705 47.8997 162.223 50.9275 159.035 53.0148L160.199 54.7938C163.777 52.4517 166.509 49.0798 168.412 44.7307L166.464 43.8785ZM159.036 53.014C155.87 55.0806 152.052 56.1369 147.532 56.1369V58.2632C152.394 58.2632 156.632 57.1224 160.198 54.7945L159.036 53.014ZM147.532 47.6696C150.77 47.6696 153.34 45.9831 155.216 42.8947L153.398 41.7909C151.821 44.3873 149.874 45.5433 147.532 45.5433V47.6696ZM155.217 42.8922C157.095 39.7815 157.951 35.1588 157.934 29.1826L155.807 29.1889C155.824 35.0357 154.972 39.1844 153.397 41.7934L155.217 42.8922ZM157.934 29.1857C157.934 25.2526 157.536 21.9449 156.708 19.2951L154.679 19.9293C155.42 22.3017 155.807 25.3763 155.807 29.1857H157.934ZM156.709 19.2971C155.889 16.6571 154.718 14.5771 153.129 13.1671L151.718 14.7574C152.919 15.8237 153.928 17.5103 154.678 19.9273L156.709 19.2971ZM153.129 13.1671C151.54 11.7563 149.658 11.042 147.532 11.042V13.1682C149.138 13.1682 150.518 13.692 151.718 14.7574L153.129 13.1671ZM147.532 11.042C144.314 11.042 141.762 12.7081 139.902 15.7636L141.718 16.8692C143.276 14.3096 145.205 13.1682 147.532 13.1682V11.042ZM139.903 15.7611C138.041 18.8014 137.175 23.3283 137.157 29.1825L139.283 29.1889C139.301 23.4642 140.161 19.4116 141.716 16.8717L139.903 15.7611ZM137.157 29.181C137.139 33.1657 137.519 36.5304 138.326 39.2453L140.364 38.6394C139.637 36.1926 139.266 33.0529 139.283 29.1905L137.157 29.181ZM138.328 39.2516C139.147 41.9439 140.325 44.0672 141.929 45.5128L143.353 43.9334C142.132 42.833 141.113 41.1025 140.362 38.6331L138.328 39.2516ZM141.935 45.5177C143.537 46.942 145.417 47.6696 147.532 47.6696V45.5433C145.951 45.5433 144.57 45.0153 143.347 43.9285L141.935 45.5177ZM186.164 55.8922H185.101V56.9554H186.164V55.8922ZM186.164 2.32231V1.25917H185.101V2.32231H186.164ZM222.732 2.32231H223.795V1.25917H222.732V2.32231ZM222.732 12.8375V13.9006H223.795V12.8375H222.732ZM199.112 12.8375V11.7744H198.048V12.8375H199.112ZM199.112 23.8235H198.048V24.8867H199.112V23.8235ZM220.404 23.8235H221.467V22.7604H220.404V23.8235ZM220.404 34.3649V35.428H221.467V34.3649H220.404ZM199.112 34.3649V33.3017H198.048V34.3649H199.112ZM199.112 55.8922V56.9554H200.175V55.8922H199.112ZM187.227 55.8922V2.32231H185.101V55.8922H187.227ZM186.164 3.38546H222.732V1.25917H186.164V3.38546ZM221.668 2.32231V12.8375H223.795V2.32231H221.668ZM222.732 11.7744H199.112V13.9006H222.732V11.7744ZM198.048 12.8375V23.8235H200.175V12.8375H198.048ZM199.112 24.8867H220.404V22.7604H199.112V24.8867ZM219.34 23.8235V34.3649H221.467V23.8235H219.34ZM220.404 33.3017H199.112V35.428H220.404V33.3017ZM198.048 34.3649V55.8922H200.175V34.3649H198.048ZM199.112 54.8291H186.164V56.9554H199.112V54.8291ZM254.524 18.3828L253.466 18.4791L253.553 19.446H254.524V18.3828ZM252.196 13.9099L251.535 14.7422L251.541 14.7469L251.547 14.7514L252.196 13.9099ZM242.178 12.9421L241.791 11.9519L241.791 11.9519L242.178 12.9421ZM239.667 14.747L240.52 15.3817L240.527 15.3723L239.667 14.747ZM238.804 17.3365L239.866 17.3827L239.867 17.3691L239.867 17.3555L238.804 17.3365ZM239.275 19.4553L238.352 19.9827L238.357 19.9926L238.363 20.0022L239.275 19.4553ZM240.844 21.077L240.239 21.9511L240.252 21.9599L240.265 21.9684L240.844 21.077ZM243.355 22.2802L243.713 21.279L243.713 21.279L243.355 22.2802ZM246.651 23.1957L246.887 22.159L246.874 22.1562L246.651 23.1957ZM251.255 24.242L251.019 25.2788L251.029 25.281L251.255 24.242ZM258.265 26.5439L257.809 27.5045L257.812 27.506L258.265 26.5439ZM263.392 29.9704L262.654 30.7366L262.659 30.7412L263.392 29.9704ZM266.557 34.548L265.574 34.9547L265.574 34.9547L266.557 34.548ZM267.655 40.3548L268.718 40.3603L268.718 40.3462L267.655 40.3548ZM265.092 49.0652L264.22 48.4568L264.22 48.4568L265.092 49.0652ZM257.794 54.6367L257.394 53.6518L257.392 53.6526L257.794 54.6367ZM234.645 54.5582L235.042 53.5722L235.042 53.5722L234.645 54.5582ZM224.025 38.053V36.9899H222.949L222.962 38.0663L224.025 38.053ZM236.424 38.053L237.485 37.9887L237.424 36.9899H236.424V38.053ZM237.81 42.369L236.944 42.9856L236.944 42.9857L237.81 42.369ZM241.184 44.9847L240.777 45.9667L240.781 45.9685L241.184 44.9847ZM250.653 45.1678L250.275 44.174L250.27 44.1759L250.653 45.1678ZM253.504 43.206L252.671 42.5461L252.671 42.5461L253.504 43.206ZM254.524 40.3287L255.587 40.3458L255.588 40.3281L255.587 40.3104L254.524 40.3287ZM253.583 37.7391L252.766 38.4198L252.774 38.4294L253.583 37.7391ZM250.758 35.8558L250.337 36.8323L250.345 36.8358L250.354 36.8392L250.758 35.8558ZM245.945 34.3649L245.703 35.4001L245.704 35.4005L245.945 34.3649ZM240.347 33.057L240.589 32.0217L240.585 32.0208L240.347 33.057ZM229.387 27.904L228.678 28.6961L228.681 28.6986L229.387 27.904ZM225.411 18.2259L226.475 18.2304L226.474 18.2203L225.411 18.2259ZM228.079 9.51554L227.217 8.89418L227.217 8.89418L228.079 9.51554ZM235.534 3.68249L235.962 4.65576L235.962 4.65576L235.534 3.68249ZM257.192 3.70864L256.746 4.67347L256.752 4.67649L257.192 3.70864ZM264.333 9.59401L265.217 9.00288L265.217 9.00288L264.333 9.59401ZM266.923 18.3828V19.446H267.997L267.986 18.3717L266.923 18.3828ZM255.583 18.2866C255.385 16.1087 254.484 14.3332 252.846 13.0685L251.547 14.7514C252.664 15.6141 253.315 16.8205 253.466 18.4791L255.583 18.2866ZM252.858 13.0777C251.241 11.7923 249.026 11.2251 246.363 11.2251V13.3513C248.757 13.3513 250.432 13.8653 251.535 14.7422L252.858 13.0777ZM246.363 11.2251C244.606 11.2251 243.069 11.4527 241.791 11.9519L242.565 13.9324C243.519 13.5596 244.773 13.3513 246.363 13.3513V11.2251ZM241.791 11.9519C240.535 12.4424 239.513 13.1518 238.807 14.1217L240.527 15.3723C240.937 14.8076 241.589 14.3137 242.565 13.9324L241.791 11.9519ZM238.814 14.1123C238.117 15.0487 237.762 16.1295 237.741 17.3176L239.867 17.3555C239.88 16.5905 240.101 15.9449 240.52 15.3817L238.814 14.1123ZM237.742 17.2904C237.699 18.2638 237.89 19.1744 238.352 19.9827L240.198 18.9278C239.962 18.5155 239.839 18.0136 239.866 17.3827L237.742 17.2904ZM238.363 20.0022C238.819 20.7615 239.455 21.4081 240.239 21.9511L241.449 20.2029C240.873 19.8042 240.463 19.3697 240.186 18.9083L238.363 20.0022ZM240.265 21.9684C241.046 22.4764 241.961 22.9114 242.998 23.2814L243.713 21.279C242.796 20.9516 242.037 20.5844 241.423 20.1856L240.265 21.9684ZM242.998 23.2814C244.026 23.6487 245.171 23.9658 246.428 24.2353L246.874 22.1562C245.69 21.9025 244.637 21.6093 243.713 21.279L242.998 23.2814ZM246.415 24.2324L251.019 25.2787L251.49 23.2053L246.887 22.159L246.415 24.2324ZM251.029 25.281C253.616 25.8427 255.873 26.5866 257.809 27.5045L258.72 25.5832C256.611 24.5829 254.194 23.7923 251.48 23.2031L251.029 25.281ZM257.812 27.506C259.766 28.4244 261.374 29.5047 262.655 30.7366L264.129 29.2043C262.654 27.7856 260.844 26.5815 258.717 25.5817L257.812 27.506ZM262.659 30.7412C263.95 31.9672 264.918 33.37 265.574 34.9547L267.539 34.1412C266.765 32.2732 265.623 30.6243 264.124 29.1997L262.659 30.7412ZM265.574 34.9547C266.23 36.5376 266.576 38.3353 266.592 40.3635L268.718 40.3462C268.7 38.0847 268.313 36.0111 267.539 34.1412L265.574 34.9547ZM266.592 40.3494C266.576 43.5489 265.771 46.2345 264.22 48.4568L265.964 49.6736C267.796 47.0481 268.7 43.9268 268.718 40.3603L266.592 40.3494ZM264.22 48.4568C262.664 50.6869 260.408 52.4261 257.394 53.6518L258.194 55.6215C261.527 54.2664 264.137 52.2913 265.964 49.6736L264.22 48.4568ZM257.392 53.6526C254.396 54.8774 250.73 55.5092 246.363 55.5092V57.6354C250.925 57.6354 254.879 56.9768 258.196 55.6207L257.392 53.6526ZM246.363 55.5092C241.985 55.5092 238.22 54.8531 235.042 53.5722L234.247 55.5442C237.731 56.9488 241.778 57.6354 246.363 57.6354V55.5092ZM235.042 53.5722C231.89 52.3015 229.477 50.3893 227.757 47.8425L225.995 49.0323C227.972 51.9611 230.738 54.1295 234.247 55.5442L235.042 53.5722ZM227.757 47.8425C226.052 45.3173 225.138 42.0726 225.088 38.0397L222.962 38.0663C223.016 42.4038 224.003 46.0819 225.995 49.0323L227.757 47.8425ZM224.025 39.1162H236.424V36.9899H224.025V39.1162ZM235.362 38.1173C235.476 39.9979 235.985 41.6396 236.944 42.9856L238.676 41.7523C237.995 40.7965 237.58 39.5609 237.485 37.9887L235.362 38.1173ZM236.944 42.9857C237.89 44.3143 239.181 45.305 240.777 45.9667L241.591 44.0026C240.327 43.4785 239.369 42.7254 238.676 41.7523L236.944 42.9857ZM240.781 45.9685C242.381 46.6237 244.196 46.9372 246.206 46.9372V44.8109C244.415 44.8109 242.882 44.5314 241.587 44.0009L240.781 45.9685ZM246.206 46.9372C248.04 46.9372 249.66 46.6904 251.036 46.1597L250.27 44.1759C249.205 44.5868 247.86 44.8109 246.206 44.8109V46.9372ZM251.031 46.1615C252.405 45.6388 253.53 44.8855 254.338 43.8659L252.671 42.5461C252.153 43.2005 251.377 43.7551 250.275 44.1741L251.031 46.1615ZM254.338 43.8659C255.147 42.8431 255.566 41.6574 255.587 40.3458L253.461 40.3115C253.448 41.1623 253.186 41.8948 252.671 42.5461L254.338 43.8659ZM255.587 40.3104C255.566 39.0724 255.174 37.9663 254.391 37.0489L252.774 38.4294C253.212 38.9419 253.448 39.5621 253.461 40.347L255.587 40.3104ZM254.399 37.0585C253.64 36.1472 252.529 35.4342 251.162 34.8725L250.354 36.8392C251.533 37.3237 252.305 37.8662 252.766 38.4197L254.399 37.0585ZM251.178 34.8793C249.844 34.3051 248.174 33.791 246.185 33.3292L245.704 35.4005C247.621 35.8455 249.16 36.3254 250.337 36.8323L251.178 34.8793ZM246.187 33.3296L240.589 32.0217L240.105 34.0923L245.703 35.4001L246.187 33.3296ZM240.585 32.0208C236.064 30.9841 232.591 29.3294 230.094 27.1094L228.681 28.6986C231.52 31.2218 235.353 33.0024 240.109 34.0932L240.585 32.0208ZM230.096 27.112C227.687 24.9541 226.458 22.035 226.474 18.2304L224.348 18.2213C224.33 22.5429 225.752 26.0759 228.678 28.6961L230.096 27.112ZM226.474 18.2203C226.458 15.1134 227.288 12.4335 228.942 10.1369L227.217 8.89418C225.279 11.5849 224.33 14.7119 224.348 18.2315L226.474 18.2203ZM228.942 10.1369C230.614 7.81624 232.939 5.98442 235.962 4.65576L235.106 2.70922C231.782 4.17065 229.137 6.22753 227.217 8.89418L228.942 10.1369ZM235.962 4.65576C238.98 3.32929 242.449 2.65306 246.389 2.65306V0.526768C242.204 0.526768 238.436 1.24559 235.106 2.70922L235.962 4.65576ZM246.389 2.65306C250.421 2.65306 253.863 3.33908 256.746 4.67345L257.639 2.74384C254.418 1.25323 250.659 0.526768 246.389 0.526768V2.65306ZM256.752 4.67649C259.662 5.99883 261.88 7.83845 263.45 10.1851L265.217 9.00288C263.404 6.29251 260.861 4.20856 257.632 2.74079L256.752 4.67649ZM263.45 10.1851C265.015 12.5257 265.827 15.2495 265.86 18.394L267.986 18.3717C267.949 14.8548 267.034 11.7194 265.217 9.00288L263.45 10.1851ZM266.923 17.3197H254.524V19.446H266.923V17.3197Z" fill="url(#paint1_linear_54_10894)"/>
</g>
<defs>
<filter id="filter0_d_54_10894" x="0.891701" y="0.144001" width="269.911" height="61.904" filterUnits="userSpaceOnUse" color-interpolation-filters="sRGB">
<feFlood flood-opacity="0" result="BackgroundImageFix"/>
<feColorMatrix in="SourceAlpha" type="matrix" values="0 0 0 0 0 0 0 0 0 0 0 0 0 0 0 0 0 0 127 0" result="hardAlpha"/>
<feOffset dy="1.70103"/>
<feGaussianBlur stdDeviation="1.04188"/>
<feComposite in2="hardAlpha" operator="out"/>
<feColorMatrix type="matrix" values="0 0 0 0 0.470508 0 0 0 0 0.0205847 0 0 0 0 0.0298935 0 0 0 1 0"/>
<feBlend mode="normal" in2="BackgroundImageFix" result="effect1_dropShadow_54_10894"/>
<feBlend mode="normal" in="SourceGraphic" in2="effect1_dropShadow_54_10894" result="shape"/>
</filter>
<linearGradient id="paint0_linear_54_10894" x1="159.089" y1="2.14971" x2="159.006" y2="56.4585" gradientUnits="userSpaceOnUse">
<stop offset="0.01" stop-color="#BFA34E"/>
<stop offset="0.3" stop-color="#FFD66C"/>
<stop offset="0.535" stop-color="#FFF4D8"/>
<stop offset="0.67" stop-color="#5E4618"/>
<stop offset="0.775" stop-color="#F5DF71"/>
</linearGradient>
<linearGradient id="paint1_linear_54_10894" x1="163.985" y1="66.7233" x2="165.285" y2="-23.1215" gradientUnits="userSpaceOnUse">
<stop offset="0.01" stop-color="#BFA34E"/>
<stop offset="0.3" stop-color="#FFD66C"/>
<stop offset="0.54" stop-color="#FFF4D8"/>
<stop offset="0.67" stop-color="#5E4618"/>
<stop offset="0.775" stop-color="#F5DF71"/>
</linearGradient>
</defs>
</svg>
