<svg width="19" height="13" viewBox="0 0 19 13" fill="none" xmlns="http://www.w3.org/2000/svg">
<path d="M9.75702 0.0650635C5.66611 0.0650635 2.17247 2.55306 0.757019 6.06506C2.17247 9.57706 5.66611 12.0651 9.75702 12.0651C13.8479 12.0651 17.3416 9.57706 18.757 6.06506C17.3416 2.55306 13.8479 0.0650635 9.75702 0.0650635ZM9.75702 10.0651C7.49884 10.0651 5.66611 8.27306 5.66611 6.06506C5.66611 3.85706 7.49884 2.06506 9.75702 2.06506C12.0152 2.06506 13.8479 3.85706 13.8479 6.06506C13.8479 8.27306 12.0152 10.0651 9.75702 10.0651ZM9.75702 3.66506C8.39884 3.66506 7.30247 4.73706 7.30247 6.06506C7.30247 7.39306 8.39884 8.46506 9.75702 8.46506C11.1152 8.46506 12.2116 7.39306 12.2116 6.06506C12.2116 4.73706 11.1152 3.66506 9.75702 3.66506Z" fill="#F2F2F2" fill-opacity="0.6"/>
</svg>
